<svg xmlns="http://www.w3.org/2000/svg" width="24" height="24" fill="none"><g fill="#F4F4FD" clip-path="url(#a)"><path d="M23.9765 7.056c-.0562-1.2752-.2624-2.1518-.5578-2.9115-.3048-.8064-.7736-1.5283-1.3879-2.1285A5.9054 5.9054 0 0 0 19.9069.633c-.764-.2955-1.6361-.5017-2.9114-.558C15.7108.0142 15.303 0 12.0445 0 8.7861 0 8.3782.0141 7.0982.0703 5.823.1266 4.9463.333 4.1868.6282c-.8065.3047-1.5284.7736-2.1286 1.3878A5.909 5.909 0 0 0 .6752 4.14c-.2955.7642-.5017 1.636-.558 2.9113-.061 1.2847-.075 1.6926-.075 4.951 0 3.2585.014 3.6663.0703 4.9463.0562 1.2752.2626 2.1519.558 2.9116a5.9185 5.9185 0 0 0 1.3877 2.1285 5.9067 5.9067 0 0 0 2.1239 1.3831c.7642.2954 1.6362.5016 2.9116.5578 1.2797.0564 1.6878.0703 4.9462.0703 3.2585 0 3.6663-.0139 4.9463-.0703 1.2752-.0562 2.1519-.2624 2.9114-.5578a6.139 6.139 0 0 0 3.5117-3.5116c.2953-.7642.5017-1.6364.5579-2.9116.0562-1.28.0703-1.6878.0703-4.9463 0-3.2584-.0048-3.6663-.061-4.9462Zm-2.1612 9.7989c-.0517 1.1721-.2486 1.805-.4126 2.227a3.9814 3.9814 0 0 1-2.2787 2.2786c-.4219.1641-1.0595.361-2.227.4124-1.2659.0564-1.6455.0704-4.8477.0704-3.2023 0-3.5867-.014-4.848-.0704-1.172-.0514-1.805-.2483-2.227-.4124-.5203-.1923-.9939-.4971-1.3783-.8956a3.7306 3.7306 0 0 1-.8955-1.3783c-.1641-.4219-.361-1.0596-.4125-2.227-.0564-1.2659-.0703-1.6457-.0703-4.8479 0-3.2022.014-3.5866.0703-4.8478.0515-1.172.2484-1.805.4125-2.227.1923-.5204.497-.9939.9003-1.3785a3.7255 3.7255 0 0 1 1.3783-.8953c.422-.1641 1.0597-.361 2.227-.4127 1.2659-.0562 1.6457-.0703 4.8477-.0703 3.207 0 3.5867.0141 4.848.0703 1.1721.0517 1.805.2486 2.227.4127.5203.192.9939.4968 1.3783.8953.3985.3892.7033.858.8956 1.3785.164.422.3609 1.0595.4126 2.227.0562 1.266.0703 1.6456.0703 4.8478 0 3.2022-.0141 3.5773-.0703 4.8432Z"/><path d="M12.0445 5.837c-3.4036 0-6.1652 2.7614-6.1652 6.1653s2.7616 6.1653 6.1652 6.1653c3.4039 0 6.1653-2.7614 6.1653-6.1653S15.4484 5.837 12.0445 5.837Zm0 10.1646c-2.2081 0-3.9992-1.791-3.9992-3.9993s1.7911-3.9992 3.9992-3.9992c2.2084 0 3.9993 1.7909 3.9993 3.9992 0 2.2083-1.7909 3.9993-3.9993 3.9993ZM19.893 5.5934c0 .7948-.6444 1.4393-1.4395 1.4393-.7948 0-1.4393-.6445-1.4393-1.4393 0-.795.6445-1.4394 1.4393-1.4394.7951 0 1.4395.6444 1.4395 1.4394Z"/></g><defs><clipPath id="a"><path fill="#fff" d="M0 0h24v24H0z"/></clipPath></defs></svg>